<?xml version="1.0" ?><!DOCTYPE svg  PUBLIC '-//W3C//DTD SVG 1.1//EN'  'http://www.w3.org/Graphics/SVG/1.1/DTD/svg11.dtd'><svg height="512px" style="shape-rendering:geometricPrecision; text-rendering:geometricPrecision; image-rendering:optimizeQuality; fill-rule:evenodd; clip-rule:evenodd" version="1.1" viewBox="0 0 512000 512000" width="512px" xml:space="preserve" xmlns="http://www.w3.org/2000/svg" xmlns:xlink="http://www.w3.org/1999/xlink"><defs><style type="text/css">
   <![CDATA[
.fil0 {fill:white}   .fil1 {fill:#3498db}
   ]]>
  </style></defs><g id="Layer_x0020_1"><path class="fil1" d="M133440 1998l245120 0c72293,0 131441,59149 131441,131442l0 245120c0,72293 -59147,131441 -131441,131441l-245120 0c-72293,0 -131442,-59147 -131442,-131441l0 -245120c0,-72293 59149,-131442 131442,-131442z"/><path class="fil0" d="M240257 127242c0,0 14524,-784 7851,11385 -6673,12170 -3533,20022 -3533,20022 0,0 17272,34153 34938,42004 17666,7852 49857,17667 59279,65560 9422,47894 5104,67131 5104,67131 0,0 15311,2355 20414,-5104 5104,-7459 12169,-2748 10206,8636 -1962,11385 -16879,19629 -30620,22769 -13740,3141 -18450,5889 -18450,10207 0,4318 -2750,14917 -7852,14917 -5104,0 -79301,0 -79301,0 0,0 -4710,-9814 3926,-15311 8637,-5496 9423,-7852 9423,-7852 0,0 -23947,-22376 -22769,-35330 1178,-12954 392,-10206 -6281,-25517 -6673,-15311 -18450,-28657 -26302,-28265 -7852,392 -7459,18057 -12956,20020 -5496,1964 -18450,-14525 -13348,-27086 5104,-12562 17272,-14917 17272,-14917 0,0 -3533,-6674 1179,-19237 4711,-12562 6673,-21198 -5496,-22769 -12170,-1570 -42006,-9030 -45147,-18451 -3141,-9421 5105,-31798 25518,-43182 20413,-11385 54960,-6673 54960,-6673 0,0 6673,-12170 21984,-12956z"/></g></svg>